<svg width="48" height="48" viewBox="0 0 48 48" fill="none" xmlns="http://www.w3.org/2000/svg">
<path d="M12.1715 9.34311C11.3905 8.56206 10.1242 8.56206 9.34311 9.34311C8.56206 10.1242 8.56206 11.3905 9.34311 12.1715L12.1715 9.34311ZM35.8284 38.6568C36.6094 39.4379 37.8758 39.4379 38.6568 38.6568C39.4379 37.8758 39.4379 36.6094 38.6568 35.8284L35.8284 38.6568ZM38.6568 12.1715C39.4379 11.3905 39.4379 10.1242 38.6568 9.34311C37.8758 8.56206 36.6094 8.56206 35.8284 9.34311L38.6568 12.1715ZM9.34311 35.8284C8.56206 36.6094 8.56206 37.8758 9.34311 38.6568C10.1242 39.4379 11.3905 39.4379 12.1715 38.6568L9.34311 35.8284ZM9.34311 12.1715L22.5858 25.4142L25.4142 22.5858L12.1715 9.34311L9.34311 12.1715ZM22.5858 25.4142L35.8284 38.6568L38.6568 35.8284L25.4142 22.5858L22.5858 25.4142ZM35.8284 9.34311L22.5858 22.5858L25.4142 25.4142L38.6568 12.1715L35.8284 9.34311ZM22.5858 22.5858L9.34311 35.8284L12.1715 38.6568L25.4142 25.4142L22.5858 22.5858Z" fill="white"/>
</svg>
